# AST/ASF file generated using VICON BodyLanguage
# -----------------------------------------------
:version 1.10
:name VICON
:units
  mass 1.0
  length 0.45
  angle deg
:documentation
   .ast/.asf automatically generated from VICON data using
   VICON BodyBuilder and BodyLanguage model FoxedUp or BRILLIANT.MOD
:root
   order TX TY TZ RX RY RZ
   axis XYZ
   position 0 0 0  
   orientation 0 0 0 
:bonedata
  begin
     id 1 
     name lhipjoint
     direction 0.702568 -0.596508 0.388042 
     length 2.56661 
     axis 0 0 0  XYZ
  end
  begin
     id 2 
     name lfemur
     direction 0.34202 -0.939693 0  
     length 6.58374  
     axis 0 0 20  XYZ
    dof rx ry rz
    limits (-160.0 20.0)
           (-70.0 70.0)
           (-60.0 70.0)
  end
  begin
     id 3 
     name ltibia
     direction 0.34202 -0.939693 0   
     length 6.62538   
     axis 0 0 20   XYZ
    dof rx
    limits (-10.0 170.0)
  end
  begin
     id 4 
     name lfoot
     direction 0.10455 -0.287249 0.952133   
     length 2.26699   
     axis -90 7.62852e-016 20   XYZ
    dof rx rz
    limits (-45.0 90.0)
           (-70.0 20.0)
  end
  begin
     id 5 
     name ltoes
     direction 1.53572e-011 -4.22322e-011 1   
     length 1.12949   
     axis -90 7.62852e-016 20   XYZ
    dof rx
    limits (-90.0 20.0)
  end
  begin
     id 6 
     name rhipjoint
     direction -0.728055 -0.574632 0.373811   
     length 2.66432  
     axis 0 0 0  XYZ 
  end
  begin
     id 7 
     name rfemur
     direction -0.34202 -0.939693 0   
     length 6.66732   
     axis 0 0 -20   XYZ
    dof rx ry rz
    limits (-160.0 20.0)
           (-70.0 70.0)
           (-70.0 60.0)
  end
  begin
     id 8 
     name rtibia
     direction -0.34202 -0.939693 0   
     length 6.59288   
     axis 0 0 -20   XYZ
    dof rx
    limits (-10.0 170.0)
 end
 begin
     id 9 
     name rfoot
     direction -0.119193 -0.327479 0.93731   
     length 2.38061  
     axis -90 -7.62852e-016 -20   XYZ
    dof rx rz
    limits (-45.0 90.0)
           (-20.0 70.0)
  end
  begin
     id 10 
     name rtoes
     direction -1.53547e-011 -4.21827e-011 1   
     length 1.17899   
     axis -90 -7.62852e-016 -20   XYZ
    dof rx
    limits (-90.0 20.0)
  end
  begin
     id 11 
     name lowerback
     direction -0.000416114 0.999912 -0.0132284   
     length 2.12109   
     axis 0 0 0   XYZ
    dof rx ry rz
    limits (-20.0 45.0)
           (-30.0 30.0)
           (-30.0 30.0)
  end
  begin
     id 12 
     name upperback
     direction -0.00136371 0.99809 0.0617608   
     length 2.10067   
     axis 0 0 0   XYZ
    dof rx ry rz
    limits (-20.0 45.0)
           (-30.0 30.0)
           (-30.0 30.0)
  end
  begin
     id 13 
     name thorax
     direction -3.43026e-005 0.997776 0.0666515   
     length 2.10618   
     axis 0 0 0   XYZ
    dof rx ry rz
    limits (-20.0 45.0)
           (-30.0 30.0)
           (-30.0 30.0)
  end
  begin
     id 14 
     name lowerneck
     direction 0.0398646 0.998418 0.0396592   
     length 1.83817   
     axis 0 0 0   XYZ
    dof rx ry rz
    limits (-20.0 45.0)
           (-30.0 30.0)
           (-30.0 30.0)
  end
  begin
     id 15 
     name upperneck
     direction -0.0367268 0.961527 -0.272244   
     length 1.81975   
     axis 0 0 0   XYZ
    dof rx ry rz
    limits (-20.0 45.0)
           (-30.0 30.0)
           (-30.0 30.0)
  end
  begin
     id 16
     name head
     direction -0.0182665 0.99536 -0.0944669  
     length 1.86026  
     axis 0 0 0   XYZ
    dof rx ry rz
    limits (-20.0 45.0)
           (-30.0 30.0)
           (-30.0 30.0)
  end
  begin
     id 17 
     name lclavicle
     direction 0.924239 0.361045 0.124212  
     length 3.26878  
     axis 0 0 0   XYZ
    dof ry rz
    limits (-20.0 10.0)
           (0.0 20.0)
  end
  begin
     id 18 
     name lhumerus
     direction 1 -4.48968e-011 -2.56583e-027   
     length 4.58538   
     axis 180 -30 -90   XYZ
    dof rx ry rz
    limits (-60.0 90.0)
           (-90.0 90.0)
           (-90.0 90.0)
  end
  begin
     id 19
     name lradius
     direction 1 -4.4898e-011 -5.50375e-027   
     length 2.68935   
     axis 180 -30 -90   XYZ
    dof rx
    limits (-10.0 170.0)
  end
  begin
     id 20
     name lwrist
     direction 1 -4.48939e-011 -1.48955e-026   
     length 1.34468   
     axis 9.0955e-015 90 90   XYZ
    dof ry
    limits (-180.0 0.0)
 end
  begin
     id 21 
     name lhand
     direction 1 -4.48936e-011 -2.97907e-026   
     length 0.585058   
     axis 1.90115e-014 90 90   XYZ
    dof rx rz
    limits (-90.0 90.0)
           (-45.0 45.0)
  end
  begin
     id 22 
     name lfingers
     direction 1 -4.49082e-011 -5.96235e-026   
     length 0.471689   
     axis 3.80223e-014 90 90   XYZ
    dof rx
    limits (0.0 90.0)
  end
  begin
     id 23
     name lthumb
     direction 0.707107 -6.3489e-011 0.707107   
     length 0.677253   
     axis -90 45 -3.84942e-014   XYZ
    dof rx rz
    limits (-45.0 45.0)
           (-45.0 45.0)
  end
  begin
     id 24 
     name rclavicle
     direction -0.923098 0.371783 0.0983239   
     length 3.19656  
     axis 0 0 0   XYZ 
    dof ry rz
    limits (-10.0 20.0)
           (-20.0 0.0)
  end
  begin
     id 25 
     name rhumerus
     direction -1 -4.48976e-011 -2.5492e-027  
     length 4.4745   
     axis 180 30 90   XYZ
    dof rx ry rz
    limits (-90.0 60.0)
           (-90.0 90.0)
           (-90.0 90.0)
  end
  begin
     id 26 
     name rradius
     direction -1 -4.48941e-011 -4.36555e-027   
     length 2.93896   
     axis 180 30 90   XYZ
    dof rx
    limits (-10.0 170.0)
  end
  begin
     id 27 
     name rwrist
     direction -1 -4.49044e-011 -1.49032e-026   
     length 1.46948   
     axis 9.0955e-015 -90 -90   XYZ
    dof ry
    limits (-180.0 0.0)
  end
  begin
     id 28
     name rhand
     direction -1 -4.48826e-011 -2.97749e-026   
     length 0.405092   
     axis 1.90115e-014 -90 -90   XYZ
    dof rx rz
    limits (-90.0 90.0)
           (-45.0 45.0)
  end
  begin
     id 29
     name rfingers
     direction -1 -4.49209e-011 -5.96602e-026   
     length 0.326596   
     axis 3.80223e-014 -90 -90   XYZ
    dof rx
    limits (0.0 90.0)
  end
  begin
     id 30
     name rthumb
     direction -0.707107 -6.34776e-011 0.707107   
     length 0.468928   
     axis -90 -45 3.84942e-014   XYZ
    dof rx rz
    limits (-45.0 45.0)
           (-45.0 45.0)
  end
:hierarchy
  begin
    root lhipjoint rhipjoint lowerback
    lhipjoint lfemur
    lfemur ltibia
    ltibia lfoot
    lfoot ltoes
    rhipjoint rfemur
    rfemur rtibia
    rtibia rfoot
    rfoot rtoes
    lowerback upperback
    upperback thorax
    thorax lowerneck lclavicle rclavicle
    lowerneck upperneck
    upperneck head
    lclavicle lhumerus
    lhumerus lradius
    lradius lwrist
    lwrist lhand lthumb
    lhand lfingers
    rclavicle rhumerus
    rhumerus rradius
    rradius rwrist
    rwrist rhand rthumb
    rhand rfingers
  end

#!OML:ASF H:\Punching\Project 1\Capture day 1\Session 1\female.ASF
:FULLY-SPECIFIED
:DEGREES
664
root 0.00778603 15.2077 8.72493 11.6412 2.28413 1.25449
lowerback 0.209485 -1.67246 1.35958
upperback -6.23716 -2.15754 0.657919
thorax -6.62081 -1.12573 0.0544546
lowerneck -12.3168 -3.3047 4.04696
upperneck 31.3263 -6.61294 1.96557
head 12.3473 -2.23403 -0.880143
rclavicle 1.38342e-014 -5.1684e-015
rhumerus 11.649 31.3554 -81.4125
rradius 92.34
rwrist -9.82328
rhand -5.54123 1.23367
rfingers 7.12502
rthumb 20.2733 -27.7283
lclavicle 1.38342e-014 -5.1684e-015
lhumerus 10.3557 -60.6929 86.598
lradius 119.195
lwrist 0.679155
lhand -22.334 9.29494
lfingers 7.12502
lthumb 4.08627 39.2355
rfemur -37.4954 -2.3182 7.16288
rtibia 39.7862
rfoot -6.97452 -13.323
rtoes -8.78085
lfemur -0.938513 -6.19049 -10.9042
ltibia 15.1733
lfoot -18.2377 17.8091
ltoes -18.0381
665
root 0.107859 15.2389 8.66093 11.691 2.29124 1.13268
lowerback 0.188028 -1.64923 1.41226
upperback -6.22978 -2.12157 0.714942
thorax -6.6 -1.10892 0.0813105
lowerneck -12.3214 -3.25013 4.11274
upperneck 31.2444 -6.52251 1.90156
head 12.3103 -2.19692 -0.90187
rclavicle 1.66544e-014 -4.37326e-015
rhumerus 10.1864 33.0848 -82.2207
rradius 92.1711
rwrist -9.74735
rhand -5.17117 1.14035
rfingers 7.12502
rthumb 20.6289 -27.7834
lclavicle 1.66544e-014 -4.37326e-015
lhumerus 9.9695 -60.8298 87.0287
lradius 118.858
lwrist 0.423878
lhand -22.0769 9.15636
lfingers 7.12502
lthumb 4.33448 39.092
rfemur -37.0802 -1.97818 6.75803
rtibia 38.4692
rfoot -5.83513 -13.5938
rtoes -9.26583
lfemur -1.05596 -6.17836 -11.2056
ltibia 14.7631
lfoot -18.1766 17.956
ltoes -17.2422
666
root 0.209872 15.2708 8.59441 11.7705 2.27324 1.03906
lowerback 0.166691 -1.62247 1.42666
upperback -6.22868 -2.08201 0.777871
thorax -6.58419 -1.08807 0.1356
lowerneck -12.3327 -3.19281 4.17742
upperneck 31.1518 -6.421 1.81689
head 12.2696 -2.15792 -0.929671
rclavicle -8.90804e-015 -5.56597e-015
rhumerus 8.71538 34.8088 -82.969
rradius 91.9364
rwrist -9.75278
rhand -4.95999 1.05729
rfingers 7.12502
rthumb 20.8319 -27.8443
lclavicle -8.90804e-015 -5.56597e-015
lhumerus 9.43987 -60.9119 87.4994
lradius 118.567
lwrist 0.234997
lhand -21.8381 8.9865
lfingers 7.12502
lthumb 4.56512 38.9173
rfemur -36.6991 -1.60675 6.30263
rtibia 37.1169
rfoot -4.59455 -13.9021
rtoes -9.78941
lfemur -1.19087 -6.18481 -11.5446
ltibia 14.3144
lfoot -18.0661 18.1117
ltoes -16.4427
667
root 0.313281 15.3032 8.52551 11.8771 2.22337 0.966964
lowerback 0.154481 -1.58806 1.41122
upperback -6.24046 -2.03292 0.843266
thorax -6.58614 -1.06086 0.209139
lowerneck -12.3408 -3.13368 4.24417
upperneck 31.051 -6.31085 1.71363
head 12.2242 -2.11756 -0.96339
rclavicle 2.1183e-015 3.97569e-015
rhumerus 7.20211 36.5152 -83.6885
rradius 91.6577
rwrist -9.88583
rhand -4.85952 0.95363
rfingers 7.12502
rthumb 20.9284 -27.9374
lclavicle 2.1183e-015 3.97569e-015
lhumerus 8.75239 -60.9499 88.0167
lradius 118.317
lwrist 0.161642
lhand -21.6491 8.78434
lfingers 7.12502
lthumb 4.74763 38.7111
rfemur -36.3588 -1.18368 5.80021
rtibia 35.7353
rfoot -3.24737 -14.2692
rtoes -10.3306
lfemur -1.34023 -6.20866 -11.9101
ltibia 13.8293
lfoot -17.8971 18.2765
ltoes -15.68
668
root 0.417837 15.3356 8.45476 12.0077 2.13711 0.913028
lowerback 0.138652 -1.54341 1.37604
upperback -6.25744 -1.97102 0.90563
thorax -6.59098 -1.02632 0.289803
lowerneck -12.349 -3.07293 4.31677
upperneck 30.939 -6.19455 1.59526
head 12.1738 -2.07607 -1.00273
rclavicle 1.09953e-014 -1.07344e-014
rhumerus 5.65055 38.183 -84.3865
rradius 91.3459
rwrist -10.1188
rhand -4.81078 0.834624
rfingers 7.12502
rthumb 20.9752 -28.0512
lclavicle 1.09953e-014 -1.07344e-014
lhumerus 7.94866 -60.9904 88.5302
lradius 118.126
lwrist 0.258999
lhand -21.6 8.66245
lfingers 7.12502
lthumb 4.79505 38.5882
rfemur -36.0625 -0.694052 5.24802
rtibia 34.3307
rfoot -1.80306 -14.714
rtoes -10.8079
lfemur -1.49251 -6.25741 -12.2958
ltibia 13.3053
lfoot -17.6727 18.4451
ltoes -14.9802
669
root 0.523221 15.3677 8.38292 12.155 2.01131 0.86889
lowerback 0.108774 -1.48434 1.33246
upperback -6.27329 -1.89059 0.964198
thorax -6.58644 -0.982241 0.369673
lowerneck -12.3583 -3.01393 4.39356
upperneck 30.8152 -6.07694 1.4627
head 12.1185 -2.03569 -1.0477
rclavicle 1.55922e-015 3.18055e-015
rhumerus 4.06316 39.7959 -85.0663
rradius 91.0192
rwrist -10.4022
rhand -4.77293 0.644835
rfingers 7.12502
rthumb 21.0116 -28.237
lclavicle 1.55922e-015 3.18055e-015
lhumerus 7.04448 -61.04 89.031
lradius 117.99
lwrist 0.561623
lhand -21.636 8.55682
lfingers 7.12502
lthumb 4.76021 38.4833
rfemur -35.8054 -0.11595 4.64696
rtibia 32.908
rfoot -0.275889 -15.2613
rtoes -11.151
lfemur -1.63954 -6.33174 -12.6898
ltibia 12.7504
lfoot -17.397 18.6108
ltoes -14.3544
670
root 0.629085 15.3997 8.31057 12.3155 1.8505 0.829453
lowerback 0.0770982 -1.41017 1.28377
upperback -6.29335 -1.79014 1.02119
thorax -6.58545 -0.928002 0.449693
lowerneck -12.372 -2.95794 4.47347
upperneck 30.6862 -5.95983 1.31445
head 12.0616 -1.9972 -1.09907
rclavicle -1.95741e-014 -3.97569e-016
rhumerus 2.42033 41.3389 -85.7425
rradius 90.6839
rwrist -10.652
rhand -4.72323 0.398622
rfingers 7.12502
rthumb 21.0593 -28.4779
lclavicle -1.95741e-014 -3.97569e-016
lhumerus 6.00516 -61.0368 89.5733
lradius 117.875
lwrist 0.96684
lhand -21.6054 8.38912
lfingers 7.12502
lthumb 4.78982 38.315
rfemur -35.5842 0.574542 3.99102
rtibia 31.4757
rfoot 1.30458 -15.9539
rtoes -11.2521
lfemur -1.78273 -6.42535 -13.0828
ltibia 12.1785
lfoot -17.0768 18.7595
ltoes -13.809
671
root 0.734894 15.4312 8.23848 12.4856 1.66396 0.789687
lowerback 0.0283956 -1.32287 1.2302
upperback -6.30872 -1.67243 1.08109
thorax -6.56976 -0.864811 0.533978
lowerneck -12.3926 -2.90575 4.55234
upperneck 30.5472 -5.8434 1.15106
head 12.0019 -1.96122 -1.15589
rclavicle -2.8917e-015 1.98785e-015
rhumerus 0.735093 42.8012 -86.4123
rradius 90.3387
rwrist -10.8054
rhand -4.6492 0.119776
rfingers 7.12502
rthumb 21.1304 -28.7488
lclavicle -2.8917e-015 1.98785e-015
lhumerus 4.86936 -60.9739 90.1302
lradius 117.768
lwrist 1.42922
lhand -21.5114 8.20074
lfingers 7.12502
lthumb 4.8806 38.1245
rfemur -35.3911 1.40346 3.27389
rtibia 30.0458
rfoot 2.88584 -16.8503
rtoes -10.9556
lfemur -1.93825 -6.52304 -13.4658
ltibia 11.6264
lfoot -16.7321 18.881
ltoes -13.3259
672
root 0.840034 15.462 8.16754 12.6582 1.46302 0.745687
lowerback -0.0430208 -1.2248 1.18219
upperback -6.31305 -1.54061 1.14065
thorax -6.52983 -0.794906 0.613345
lowerneck -12.4224 -2.85662 4.62655
upperneck 30.397 -5.72844 0.980833
head 11.9399 -1.92743 -1.21456
rclavicle 1.42861e-014 -7.95139e-016
rhumerus -0.991037 44.1748 -87.0895
rradius 89.9783
rwrist -10.817
rhand -4.55906 -0.170041
rfingers 7.12502
rthumb 21.217 -29.0289
lclavicle 1.42861e-014 -7.95139e-016
lhumerus 3.64909 -60.8536 90.6876
lradius 117.647
lwrist 1.88737
lhand -21.3706 7.99729
lfingers 7.12502
lthumb 5.01653 37.9179
rfemur -35.2136 2.39938 2.4885
rtibia 28.6395
rfoot 4.39278 -18.0095
rtoes -10.1678
lfemur -2.12762 -6.61169 -13.8333
ltibia 11.1504
lfoot -16.4008 18.9674
ltoes -12.8724
673
root 0.94338 15.4915 8.09779 12.8336 1.25867 0.688883
lowerback -0.125562 -1.11867 1.1497
upperback -6.31495 -1.39779 1.19724
thorax -6.48197 -0.720484 0.68032
lowerneck -12.4518 -2.80994 4.69616
upperneck 30.2395 -5.61651 0.812611
head 11.8756 -1.89539 -1.27183
rclavicle -7.80269e-015 -1.15295e-014
rhumerus -2.77926 45.4559 -87.8064
rradius 89.5935
rwrist -10.675
rhand -4.45932 -0.435036
rfingers 7.12502
rthumb 21.3128 -29.2831
lclavicle -7.80269e-015 -1.15295e-014
lhumerus 2.32101 -60.6801 91.2577
lradius 117.491
lwrist 2.28496
lhand -21.2377 7.81256
lfingers 7.12502
lthumb 5.1448 37.7301
rfemur -35.0533 3.59047 1.63901
rtibia 27.2863
rfoot 5.69616 -19.4837
rtoes -8.83878
lfemur -2.39365 -6.67099 -14.1728
ltibia 10.8255
lfoot -16.121 19.0172
ltoes -12.4415
674
root 1.04424 15.519 8.03005 13.0045 1.06664 0.616916
lowerback -0.227529 -1.01032 1.13526
upperback -6.30675 -1.25194 1.25265
thorax -6.41309 -0.645555 0.735551
lowerneck -12.486 -2.76382 4.75781
upperneck 30.0755 -5.50544 0.649605
head 11.8107 -1.86398 -1.32578
rclavicle 1.1677e-014 -6.75868e-015
rhumerus -4.61883 46.6569 -88.562
rradius 89.1793
rwrist -10.4281
rhand -4.38882 -0.677861
rfingers 7.12502
rthumb 21.3805 -29.5182
lclavicle 1.1677e-014 -6.75868e-015
lhumerus 0.916425 -60.4605 91.8094
lradius 117.287
lwrist 2.57956
lhand -21.1617 7.67762
lfingers 7.12502
lthumb 5.21823 37.5934
rfemur -34.8966 4.9552 0.745412
rtibia 26.0248
rfoot 6.65688 -21.2255
rtoes -7.15328
lfemur -2.76402 -6.71127 -14.4819
ltibia 10.7203
lfoot -15.9376 19.0495
ltoes -12.0008
675
root 1.14171 15.5435 7.96467 13.1658 0.896485 0.528977
lowerback -0.340358 -0.902982 1.14248
upperback -6.29574 -1.10727 1.30361
thorax -6.33596 -0.5725 0.774299
lowerneck -12.506 -2.71823 4.81167
upperneck 29.9059 -5.39536 0.496032
head 11.7419 -1.83291 -1.37447
rclavicle -6.0971e-015 -2.54444e-014
rhumerus -6.54086 47.793 -89.3916
rradius 88.7281
rwrist -10.119
rhand -4.42788 -0.893753
rfingers 7.12502
rthumb 21.343 -29.7384
lclavicle -6.0971e-015 -2.54444e-014
lhumerus -0.58971 -60.1912 92.3593
lradius 117.022
lwrist 2.75454
lhand -21.1519 7.58785
lfingers 7.12502
lthumb 5.22769 37.5034
rfemur -34.7392 6.44883 -0.158002
rtibia 24.8961
rfoot 7.10003 -23.1325
rtoes -5.28541
lfemur -3.25509 -6.74054 -14.7589
ltibia 10.8784
lfoot -15.88 19.0806
ltoes -11.5345
676
root 1.23494 15.5648 7.90206 13.312 0.760186 0.428887
lowerback -0.46363 -0.802907 1.16497
upperback -6.2794 -0.972527 1.34952
thorax -6.24777 -0.505306 0.799971
lowerneck -12.5109 -2.67073 4.86163
upperneck 29.7289 -5.28338 0.351252
head 11.6681 -1.80059 -1.41841
rclavicle -2.38883e-014 1.23246e-014
rhumerus -8.54036 48.8646 -90.3051
rradius 88.2341
rwrist -9.82141
rhand -4.55909 -1.08117
rfingers 7.12502
rthumb 21.217 -29.94
lclavicle -2.38883e-014 1.23246e-014
lhumerus -2.17017 -59.8705 92.8793
lradius 116.693
lwrist 2.82764
lhand -21.2011 7.54621
lfingers 7.12502
lthumb 5.18021 37.4629
rfemur -34.5725 7.96992 -1.01111
rtibia 23.9375
rfoot 6.90691 -25.0342
rtoes -3.46461
lfemur -3.85563 -6.77241 -15.0046
ltibia 11.292
lfoot -15.9475 19.1187
ltoes -11.0488
